<?xml version="1.0" encoding="UTF-8"?>
<svg id="Capa_2" data-name="Capa 2" xmlns="http://www.w3.org/2000/svg" viewBox="0 0 11.87 23.66">
  <defs>
    <style>
      .cls-1 {
        fill: #fff;
        stroke-width: 0px;
      }
    </style>
  </defs>
  <g id="Capa_2-2" data-name="Capa 2">
    <g>
      <path class="cls-1" d="m2.73,23.51c1.54-.77,2.72-2.13,2.72-5.18v-6.28c0-1.41-.05-2.64-1.62-2.77v-.21c.71.05,1.33.08,1.93.08s1.25-.03,1.97-.08v.21c-1.23.13-1.46.77-1.46,2.77v6.62c0,1.82-.56,4.21-3.46,4.98l-.08-.15Z"/>
      <path class="cls-1" d="m5.95,0c3.41,0,5.92,2.38,5.92,5.61,0,1.07-.31,2.57-.98,3.61-.95.05-1.93.07-2.89.05v-.23c1.79-.36,3.53-1.52,3.53-3.71,0-2.38-2-4.25-5.59-4.25S.36,3.07.36,5.51c0,1.77,1.56,3.21,3.26,3.53v.23c-.89.02-1.77,0-2.66-.05C.26,8.15,0,6.61,0,5.62,0,2.43,2.51,0,5.95,0Z"/>
      <rect class="cls-1" x="2.18" y="3.55" width="2.5" height="2.5" rx="1.25" ry="1.25"/>
      <rect class="cls-1" x="7.19" y="3.61" width="2.5" height="2.5" rx="1.25" ry="1.25"/>
    </g>
  </g>
</svg>